<?xml version="1.0" standalone="no"?>
<!DOCTYPE svg PUBLIC "-//W3C//DTD SVG 20010904//EN"
 "http://www.w3.org/TR/2001/REC-SVG-20010904/DTD/svg10.dtd">
<svg version="1.0" xmlns="http://www.w3.org/2000/svg"
 width="700.000000pt" height="700.000000pt" viewBox="0 0 700.000000 700.000000"
 preserveAspectRatio="xMidYMid meet">
<metadata>
Created by potrace 1.11, written by Peter Selinger 2001-2013
</metadata>
<g transform="translate(0.000000,700.000000) scale(0.100000,-0.100000)"
fill="#000000" stroke="none">
<path d="M2795 6983 c2 -10 15 -70 29 -133 41 -177 41 -177 14 -185 -13 -4
-92 -29 -177 -57 -85 -27 -161 -51 -170 -53 -55 -13 -196 -65 -199 -73 -3 -9
259 -647 323 -787 74 -164 101 -312 78 -435 -23 -117 -74 -212 -210 -386 -39
-49 -92 -120 -118 -159 -27 -38 -84 -121 -128 -183 -164 -235 -499 -765 -591
-937 -15 -27 -37 -66 -48 -85 -127 -217 -369 -710 -466 -950 -48 -120 -99
-253 -106 -280 -4 -14 -11 -34 -16 -45 -16 -36 -69 -217 -96 -329 -29 -125
-30 -125 -38 -186 -3 -25 -10 -69 -15 -99 -13 -83 -10 -384 5 -491 46 -334
138 -537 325 -721 178 -175 467 -297 829 -349 41 -6 89 -13 105 -15 17 -3 59
-8 95 -11 36 -3 79 -7 95 -9 234 -28 2084 -28 2375 0 134 13 157 15 175 19 11
2 47 7 80 10 33 4 67 9 75 11 8 2 30 7 48 10 149 25 358 89 463 141 62 31 172
99 209 129 172 140 296 340 356 575 39 155 52 288 49 500 -1 113 -5 215 -8
227 -3 11 -9 43 -12 70 -22 158 -129 522 -225 763 -233 589 -666 1374 -1119
2025 -54 77 -124 178 -156 225 -33 47 -63 90 -68 95 -4 6 -47 62 -94 125 -96
129 -142 219 -158 305 -7 35 -7 161 -1 190 18 84 29 120 59 195 41 100 84 203
102 245 8 17 26 59 41 95 14 36 31 76 37 90 6 14 11 27 12 30 1 3 8 21 16 40
85 194 141 342 133 349 -5 5 -81 41 -169 81 -88 40 -187 85 -220 100 -33 15
-84 38 -112 50 -44 20 -52 27 -47 44 27 108 50 222 47 229 -2 4 -321 7 -708 7
-665 0 -704 -1 -700 -17z m1074 -1703 l-1 -229 -362 -1 -362 0 0 230 0 230
363 0 363 0 -1 -230z m-282 -1209 c9 -1 12 -34 11 -128 l-1 -128 40 -11 c22
-7 57 -14 79 -17 75 -10 189 -49 278 -95 89 -45 201 -142 253 -218 63 -91 117
-247 125 -354 l3 -45 -242 -2 c-269 -2 -244 -9 -258 70 -15 90 -83 191 -155
227 -42 21 -120 42 -120 31 -1 -9 -1 -488 -1 -551 l1 -55 166 -47 c236 -68
376 -138 495 -249 44 -42 119 -137 119 -152 0 -6 6 -18 14 -26 46 -52 82 -317
60 -446 -58 -344 -370 -597 -789 -641 -33 -4 -61 -8 -63 -9 -2 -1 -3 -68 -4
-148 l0 -144 -102 1 -101 1 0 142 c0 78 -3 144 -5 146 -3 3 -34 8 -70 12 -239
26 -456 135 -585 294 -106 131 -165 287 -191 506 l-6 50 242 0 c273 0 244 10
254 -90 10 -100 45 -171 118 -242 37 -36 151 -104 183 -110 6 -1 22 -4 35 -8
l25 -6 0 353 c-1 194 -4 358 -8 365 -4 6 -22 15 -40 18 -85 19 -301 91 -376
126 -173 81 -283 191 -339 340 -71 192 -41 451 73 624 134 202 363 322 675
353 13 2 16 22 15 130 -1 70 2 129 6 132 6 4 146 5 186 1z"/>
<path d="M3368 3405 c-1 -2 -20 -6 -41 -9 -181 -29 -284 -199 -226 -374 23
-69 107 -128 237 -166 28 -8 53 -12 53 -8 1 4 2 130 3 279 1 198 -2 274 -11
277 -6 3 -13 3 -15 1z"/>
<path d="M3599 2278 c-3 -84 1 -642 6 -646 10 -11 138 28 192 58 102 58 159
138 170 240 17 170 -59 260 -281 334 -91 30 -86 29 -87 14z"/>
</g>
</svg>
